<svg width="24" height="16" viewBox="0 0 24 16" fill="none" xmlns="http://www.w3.org/2000/svg">
<path d="M23.3701 7.49609C23.3359 7.41895 22.5088 5.58398 20.6699 3.74512C18.2197 1.29492 15.125 0 11.7187 0C8.31249 0 5.21776 1.29492 2.76757 3.74512C0.928702 5.58398 0.0976469 7.42188 0.0673735 7.49609C0.0229527 7.59601 0 7.70413 0 7.81348C0 7.92282 0.0229527 8.03095 0.0673735 8.13086C0.101553 8.20801 0.928702 10.042 2.76757 11.8809C5.21776 14.3301 8.31249 15.625 11.7187 15.625C15.125 15.625 18.2197 14.3301 20.6699 11.8809C22.5088 10.042 23.3359 8.20801 23.3701 8.13086C23.4145 8.03095 23.4375 7.92282 23.4375 7.81348C23.4375 7.70413 23.4145 7.59601 23.3701 7.49609ZM11.7187 14.0625C8.71288 14.0625 6.0869 12.9697 3.91308 10.8154C3.02116 9.92838 2.26232 8.91692 1.66015 7.8125C2.26209 6.70793 3.02095 5.69643 3.91308 4.80957C6.0869 2.65527 8.71288 1.5625 11.7187 1.5625C14.7246 1.5625 17.3506 2.65527 19.5244 4.80957C20.418 5.69629 21.1785 6.70776 21.7822 7.8125C21.0781 9.12695 18.0107 14.0625 11.7187 14.0625ZM11.7187 3.125C10.7916 3.125 9.88536 3.39992 9.1145 3.91499C8.34365 4.43006 7.74284 5.16214 7.38805 6.01867C7.03327 6.8752 6.94044 7.8177 7.12131 8.72699C7.30218 9.63627 7.74862 10.4715 8.40418 11.1271C9.05974 11.7826 9.89497 12.2291 10.8043 12.4099C11.7135 12.5908 12.656 12.498 13.5126 12.1432C14.3691 11.7884 15.1012 11.1876 15.6163 10.4167C16.1313 9.64588 16.4062 8.7396 16.4062 7.8125C16.4049 6.56969 15.9107 5.37816 15.0319 4.49936C14.1531 3.62057 12.9615 3.12629 11.7187 3.125ZM11.7187 10.9375C11.1007 10.9375 10.4965 10.7542 9.98258 10.4108C9.46868 10.0675 9.06814 9.5794 8.83162 9.00839C8.59509 8.43737 8.53321 7.80903 8.65379 7.20284C8.77436 6.59665 9.07199 6.03983 9.50903 5.60279C9.94607 5.16575 10.5029 4.86812 11.1091 4.74755C11.7153 4.62697 12.3436 4.68885 12.9146 4.92538C13.4856 5.1619 13.9737 5.56244 14.3171 6.07634C14.6605 6.59025 14.8437 7.19443 14.8437 7.8125C14.8437 8.6413 14.5145 9.43616 13.9284 10.0222C13.3424 10.6083 12.5475 10.9375 11.7187 10.9375Z" fill="#919191"/>
<line x1="3.2129" y1="3.54759" x2="20.2129" y2="11.5476" stroke="#919191"/>
</svg>
