<svg width="30" height="30" viewBox="0 0 30 30" fill="none" xmlns="http://www.w3.org/2000/svg">
<path d="M11.25 26.25C12.245 27.0275 13.56 27.5 15 27.5C16.44 27.5 17.755 27.0275 18.75 26.25M3.16251 17.9925C2.89626 19.6838 4.08501 20.8575 5.54001 21.4425C11.1188 23.6862 18.8813 23.6862 24.46 21.4425C25.915 20.8575 27.1038 19.6838 26.8375 17.9925C26.675 16.9525 25.8663 16.0875 25.2675 15.2425C24.4838 14.1213 24.4063 12.9 24.405 11.5988C24.4063 6.575 20.1963 2.5 15 2.5C9.80376 2.5 5.59376 6.575 5.59376 11.6C5.59376 12.9 5.51626 14.1225 4.73126 15.2425C4.13376 16.0875 3.32626 16.9525 3.16251 17.9925Z" stroke="#E1DDE0" stroke-width="1.875" stroke-linecap="round" stroke-linejoin="round"/>
</svg>
